<?xml version="1.0" encoding="utf-8"?>
<!-- Generator: Adobe Illustrator 16.0.0, SVG Export Plug-In . SVG Version: 6.00 Build 0)  -->
<!DOCTYPE svg PUBLIC "-//W3C//DTD SVG 1.1//EN" "http://www.w3.org/Graphics/SVG/1.1/DTD/svg11.dtd">
<svg version="1.1" id="Layer_1" xmlns="http://www.w3.org/2000/svg" xmlns:xlink="http://www.w3.org/1999/xlink" x="0px" y="0px"
	 width="720px" height="720px" viewBox="0 0 720 720" enable-background="new 0 0 720 720" xml:space="preserve">
<rect display="none" fill="#736357" width="720" height="720"/>
<g display="none">
	<path display="inline" fill="#C69C6D" d="M342.421,459.367c1.075-1.587,2.101-3.207,3.088-4.854
		c31.26-51.969,18.286-123.661,18.286-123.661s-14.407-66.235,24.07-120.806c0.596-0.86,1.229-1.717,1.86-2.577
		c0.802-1.094,1.694-2.419,2.627-3.412c46.589-49.448,139.248-38.827,114.589-69.651l-0.634-0.448
		c-82.894-51.073-233.043-40.31-310.851,65.541c-78.079,106.225-92.657,239.459,29.128,320.354
		c31.423,17.658,77.151-11.99,108.839-48.719C336.565,467.47,339.588,463.569,342.421,459.367z"/>
	<path display="inline" fill="#C69C6D" d="M523.905,532.521c96.924-115.632,24.381-233.027-51.983-245.947
		c-12.262-1.023-95.202-6.105-93.012,151.686c5.43,70.773-133.318,114.31-141.198,145.589
		C269.887,630.74,468.543,611.042,523.905,532.521z"/>
</g>
<circle display="none" fill="#534741" cx="352.5" cy="354" r="226.5"/>
<path display="none" fill="#534741" d="M241.078,542.265c-3.744-2.185-7.459-4.537-11.105-6.986
	c-99.095-66.63-124.116-202.854-55.934-304.26c67.479-100.362,200.965-129.049,299.794-65.044
	C454.113,176.531,387.978,211.229,347,345C316.132,445.722,273.514,512.038,241.078,542.265z"/>
<path display="none" fill="#534741" d="M531.746,471.956c-65.664,97.658-187.945,131.433-278.426,78.969
	C285.097,520.256,347.621,465.37,380.5,366c43.65-131.975,87.649-179.602,106.685-190.619c0.955,0.607,1.895,1.238,2.833,1.871
	C581.268,238.603,599.926,370.551,531.746,471.956z"/>
<path fill="#A67C52" d="M537,357c0,101-82.6,184.5-184.5,184.5C250.6,541.5,168,458,168,357h55.84
	c3.32,71,48.42,144.58,128.68,149.19c111.5,4.34,154.461-62.351,157.813-127.19l-248,0.667c0,0-7.583,22.833,3.667,59.833
	c-0.52-0.75-27.5-33.75-27-82.5H537z"/>
<path fill="#A67C52" d="M418.95,195.62c-19.844,36.5-85.27-3.954-124.534,8.046C231.014,230.333,227.89,287,224.06,343H168
	c0-102,82.6-184.75,184.5-184.75c19.38,0,38.05,2.865,55.6,8.395c0,0,0.021-0.053,0.07-0.033
	C409.41,167.112,426.4,174.4,418.95,195.62z"/>
<path fill="#A67C52" d="M429,553.5c0,3.59-2.002,6.5-4.471,6.5H281.471c-2.469,0-4.471-2.91-4.471-6.5l0,0
	c0-3.59,2.002-6.5,4.471-6.5h143.059C426.998,547,429,549.91,429,553.5L429,553.5z"/>
<polygon display="none" fill="#FFFFFF" points="444,136.907 463,180.381 526,195 600,121 "/>
<path display="none" fill="#FFFFFF" d="M832,16"/>
<polygon display="none" fill="#FFFFFF" points="209,535 266.057,535 272,590 "/>
</svg>
